<?xml version="1.0" encoding="utf-8"?>
<!-- Generator: Adobe Illustrator 22.1.0, SVG Export Plug-In . SVG Version: 6.00 Build 0)  -->
<svg version="1.1" id="Layer_1" xmlns="http://www.w3.org/2000/svg" xmlns:xlink="http://www.w3.org/1999/xlink" x="0px" y="0px"
	 viewBox="0 0 283 283" style="enable-background:new 0 0 283 283;" xml:space="preserve">
<style type="text/css">
	.st0{fill:url(#SVGID_1_);}
	.st1{fill:#FFFFFF;}
	.st2{opacity:0.4;fill:url(#SVGID_2_);}
</style>
<linearGradient id="SVGID_1_" gradientUnits="userSpaceOnUse" x1="271.2259" y1="11.7741" x2="10.2026" y2="272.7974">
	<stop  offset="0" style="stop-color:#FA6820"/>
	<stop  offset="1" style="stop-color:#FA2E48"/>
</linearGradient>
<path class="st0" d="M247.6,0C228.1,0,54.9,0,35.4,0S0,15.8,0,35.4s0,192.7,0,212.3S15.8,283,35.4,283s192.7,0,212.3,0
	s35.4-15.8,35.4-35.4s0-192.7,0-212.3S267.2,0,247.6,0z"/>
<polygon class="st1" points="141.5,141.5 212.3,141.5 212.3,212.2 70.8,212.2 70.8,70.7 141.5,70.7 "/>
<rect x="176.9" y="35.4" class="st1" width="70.7" height="70.7"/>
<linearGradient id="SVGID_2_" gradientUnits="userSpaceOnUse" x1="179.4535" y1="103.5462" x2="71.581" y2="211.4188">
	<stop  offset="0" style="stop-color:#FA6820"/>
	<stop  offset="1" style="stop-color:#FA2E48;stop-opacity:0"/>
</linearGradient>
<polygon class="st2" points="212.3,141.5 141.5,212.2 70.8,212.2 70.8,141.5 141.5,70.8 141.5,141.5 "/>
</svg>
